<?xml version="1.0" encoding="UTF-8" standalone="no"?>
<!-- Created with Inkscape (http://www.inkscape.org/) -->

<svg
   xmlns:dc="http://purl.org/dc/elements/1.1/"
   xmlns:cc="http://creativecommons.org/ns#"
   xmlns:rdf="http://www.w3.org/1999/02/22-rdf-syntax-ns#"
   xmlns:svg="http://www.w3.org/2000/svg"
   xmlns="http://www.w3.org/2000/svg"
   xmlns:sodipodi="http://sodipodi.sourceforge.net/DTD/sodipodi-0.dtd"
   xmlns:inkscape="http://www.inkscape.org/namespaces/inkscape"
   width="847.19617"
   height="847.84686"
   id="svg2"
   version="1.1"
   inkscape:version="0.47 r22583"
   sodipodi:docname="Neues Dokument 1">
  <defs
     id="defs4">
    <inkscape:perspective
       sodipodi:type="inkscape:persp3d"
       inkscape:vp_x="0 : 526.18109 : 1"
       inkscape:vp_y="0 : 1000 : 0"
       inkscape:vp_z="744.09448 : 526.18109 : 1"
       inkscape:persp3d-origin="372.04724 : 350.78739 : 1"
       id="perspective10" />
    <inkscape:perspective
       id="perspective2824"
       inkscape:persp3d-origin="0.5 : 0.33333333 : 1"
       inkscape:vp_z="1 : 0.5 : 1"
       inkscape:vp_y="0 : 1000 : 0"
       inkscape:vp_x="0 : 0.5 : 1"
       sodipodi:type="inkscape:persp3d" />
  </defs>
  <sodipodi:namedview
     id="base"
     pagecolor="#ffffff"
     bordercolor="#666666"
     borderopacity="1.0"
     inkscape:pageopacity="0.0"
     inkscape:pageshadow="2"
     inkscape:zoom="0.35"
     inkscape:cx="402.33775"
     inkscape:cy="378.13262"
     inkscape:document-units="px"
     inkscape:current-layer="layer1"
     showgrid="false"
     inkscape:window-width="1024"
     inkscape:window-height="675"
     inkscape:window-x="-4"
     inkscape:window-y="40"
     inkscape:window-maximized="1" />
  <metadata
     id="metadata7">
    <rdf:RDF>
      <cc:Work
         rdf:about="">
        <dc:format>image/svg+xml</dc:format>
        <dc:type
           rdf:resource="http://purl.org/dc/dcmitype/StillImage" />
        <dc:title></dc:title>
      </cc:Work>
    </rdf:RDF>
  </metadata>
  <g
     inkscape:label="Ebene 1"
     inkscape:groupmode="layer"
     id="layer1"
     transform="translate(52.337748,-62.647894)">
    <g
       id="g2844"
       transform="translate(591.42857,-22.857143)">
      <path
         id="path2842"
         d="m -232.50002,932.83638 c -35.38087,-1.71293 -70.04463,-6.84902 -97.5,-14.4465 -92.55583,-25.61217 -171.78746,-79.56943 -229.63776,-156.38485 -27.24253,-36.17347 -50.80843,-82.02872 -64.23993,-125 -10.99035,-35.16134 -16.59207,-66.35323 -19.26286,-107.26085 -2.39048,-36.61415 2.14784,-82.092 12.24838,-122.73915 37.44977,-150.70758 157.48296,-270.73629 308.39217,-308.380686 31.79667,-7.931697 72.66659,-13.119307 103.35875,-13.119307 12.06995,0 43.69338,2.47833 58.14125,4.55653 78.733154,11.325093 151.4039243,43.836273 213.000004,95.291133 6.325,5.28364 18.7,16.81691 27.5,25.62948 66.692516,66.78775 108.937326,152.9336 120.401236,245.52285 4.69129,37.88968 4.70397,69.02432 0.043,105.75513 -16.40928,129.31519 -91.18944,243.53071 -203.4442357,310.73082 -50.9995803,30.53033 -107.6038943,49.82123 -167.0000043,56.91408 -12.5632,1.50023 -48.39573,3.7813 -53.5,3.40574 -1.375,-0.10117 -5.2,-0.31466 -8.5,-0.47442 z"
         style="fill:#000000" />
      <path
         id="path2840"
         d="M -176.27194,857.11742 C -99.909426,846.92127 -31.999776,814.14055 22.849584,760.9993 81.541564,704.13507 117.7811,631.01343 127.66742,549.50503 c 2.14645,-17.69655 2.44021,-59.05523 0.53626,-75.5 C 118.63087,391.32302 84.603514,319.94239 27.581234,262.92508 10.417144,245.7625 -2.2687857,235.00336 -19.252246,223.20484 c -49.13966,-34.13762 -97.601044,-52.87738 -158.747774,-61.38695 -17.83341,-2.48181 -66.18038,-2.4599 -84.5,0.0383 -42.86461,5.84532 -77.28784,16.39107 -114.56473,35.09748 -95.03221,47.68941 -165.16407,139.10115 -185.80665,242.18536 -5.60241,27.97712 -6.55024,38.15918 -6.55024,70.366 0,31.45961 0.9385,42.02424 6.04071,68 19.47541,99.15099 82.62187,186.2887 171.88091,237.18366 31.38632,17.89629 68.75882,31.65454 105.19775,38.72733 9.28685,1.80258 18.25926,3.09099 35.30225,5.06928 12.04084,1.39765 60.68463,0.50725 74.72808,-1.36788 z"
         style="fill:#ffffff" />
      <path
         id="path2838"
         d="m -207.88668,837.30272 c -5.16266,-0.4682 -9.98945,-1.18861 -10.72619,-1.60091 -1.39807,-0.7824 -0.67608,-2.11255 28.60305,-52.69678 7.00371,-12.10001 22.74463,-39.32501 34.97981,-60.5 12.23518,-21.175 26.08283,-45.025 30.77255,-53 4.68972,-7.97501 9.89722,-16.97501 11.57221,-20 1.67499,-3.025 7.23424,-12.61982 12.35387,-21.32182 l 9.308444,-15.82182 -1.61793,-3.17818 c -0.88987,-1.74801 -3.21977,-5.42818 -5.17757,-8.17818 -20.998574,-29.49538 -49.249454,-43.67863 -94.486054,-47.43636 -17.44562,-1.44918 -35.25057,-1.32751 -67.19553,0.45919 -54.96908,3.07443 -64.46722,3.45924 -85.60478,3.46811 -53.98777,0.0226 -91.80872,-7.15066 -127.81544,-24.24211 -25.85468,-12.27253 -47.99929,-29.03639 -68.9997,-52.234 l -6.32357,-6.98517 0.6444,-7.01483 c 0.89957,-9.79264 6.06915,-34.51848 10.11502,-48.37966 15.05273,-51.57065 40.07465,-95.11104 76.90119,-133.815 9.68654,-10.18036 29.97539,-28.35928 38.19461,-34.22256 l 3.3677,-2.4024 9.76028,9.99331 c 31.28536,32.03226 69.39098,46.28743 123.76029,46.29826 26.68284,0.005 50.24523,-2.56678 114.5,-12.49891 51.11868,-7.90163 75.315484,-10.08334 101.500004,-9.15173 35.24933,1.25411 59.00578,7.92456 82.52835,23.17268 10.4499,6.77398 27.99593,24.71113 36.18459,36.99118 7.38564,11.07581 15.72024,27.86699 21.21299,42.73644 l 3.59662,9.73644 -5.86735,10.26356 c -3.22704,5.64495 -12.07288,21.06356 -19.65742,34.26356 -7.58453,13.19999 -14.55548,25.35 -15.491,27 -3.62309,6.39015 -24.9581997,43.11614 -38.3411697,66 -7.7196503,13.19999 -15.4517003,26.475 -17.1823503,29.5 -6.14054,10.73306 -42.19415,72.5135 -66.23592,113.5 -8.95435,15.26541 -41.093664,70.55542 -44.468384,76.5 -1.40505,2.475 -8.53074,14.85 -15.83487,27.5 -7.30413,12.64999 -15.18646,26.375 -17.51628,30.5 -10.37809,18.37465 -13.40348,23.57619 -14.35129,24.67411 -0.55748,0.64576 -3.61525,1.44993 -6.79506,1.78705 -3.1798,0.33711 -6.90646,0.74228 -8.28146,0.90038 -1.375,0.15809 -6.724,-0.0956 -11.88666,-0.56384 z"
         style="fill:#ff0000" />
      <path
         id="path2834"
         d="m -318.25002,822.21207 c -9.2125,-1.13243 -16.75,-2.4701 -16.75,-2.97258 0,-0.50247 16.23693,-32.63635 36.08208,-71.40863 19.84514,-38.77225 35.84551,-70.73159 35.55637,-71.02072 -0.90422,-0.90422 -12.69403,-3.11671 -25.16561,-4.72263 -15.13203,-1.94848 -31.44722,-3.16907 -67.97284,-5.08518 -45.96891,-2.41153 -66.40431,-4.84724 -88.3366,-10.52895 -65.52537,-16.97475 -97.68264,-60.83354 -106.65741,-145.46835 -2.35452,-22.20378 -3.49225,-21.59891 11.74401,-6.24364 39.82331,40.1344 85.23712,59.4738 152.25,64.83546 17.91318,1.43322 64.87669,0.64751 95.5,-1.59777 30.81254,-2.25914 65.50889,-2.97053 79.16485,-1.62314 14.39401,1.42021 28.44449,4.90103 36.91311,9.14476 9.89454,4.95826 9.70034,3.76958 2.7542,16.85781 -10.38862,19.57476 -33.78513,62.21935 -62.33998,113.62652 -26.68045,48.03268 -51.83768,93.8697 -60.50969,110.25 -2.40223,4.5375 -4.61852,8.19736 -4.92509,8.13301 -0.30657,-0.0643 -8.0949,-1.04352 -17.3074,-2.17597 z"
         style="fill:#000000" />
    </g>
    <path
       style="fill:#000000"
       d=""
       id="path2832" />
    <path
       style="fill:#000000"
       d=""
       id="path2830" />
  </g>
</svg>
